<svg width="16" height="17" viewBox="0 0 16 17" fill="none" xmlns="http://www.w3.org/2000/svg">
<path d="M14.252 1.24036H12.377V0.615356C12.377 0.449596 12.3111 0.290625 12.1939 0.173415C12.0767 0.0562044 11.9177 -0.00964355 11.752 -0.00964355C11.5862 -0.00964355 11.4272 0.0562044 11.31 0.173415C11.1928 0.290625 11.127 0.449596 11.127 0.615356V1.24036H4.87695V0.615356C4.87695 0.449596 4.8111 0.290625 4.69389 0.173415C4.57668 0.0562044 4.41771 -0.00964355 4.25195 -0.00964355C4.08619 -0.00964355 3.92722 0.0562044 3.81001 0.173415C3.6928 0.290625 3.62695 0.449596 3.62695 0.615356V1.24036H1.75195C1.42043 1.24036 1.10249 1.37205 0.86807 1.60647C0.633649 1.84089 0.501953 2.15884 0.501953 2.49036V14.9904C0.501953 15.3219 0.633649 15.6398 0.86807 15.8742C1.10249 16.1087 1.42043 16.2404 1.75195 16.2404H14.252C14.5835 16.2404 14.9014 16.1087 15.1358 15.8742C15.3703 15.6398 15.502 15.3219 15.502 14.9904V2.49036C15.502 2.15884 15.3703 1.84089 15.1358 1.60647C14.9014 1.37205 14.5835 1.24036 14.252 1.24036ZM3.62695 2.49036V3.11536C3.62695 3.28112 3.6928 3.44009 3.81001 3.5573C3.92722 3.67451 4.08619 3.74036 4.25195 3.74036C4.41771 3.74036 4.57668 3.67451 4.69389 3.5573C4.8111 3.44009 4.87695 3.28112 4.87695 3.11536V2.49036H11.127V3.11536C11.127 3.28112 11.1928 3.44009 11.31 3.5573C11.4272 3.67451 11.5862 3.74036 11.752 3.74036C11.9177 3.74036 12.0767 3.67451 12.1939 3.5573C12.3111 3.44009 12.377 3.28112 12.377 3.11536V2.49036H14.252V4.99036H1.75195V2.49036H3.62695ZM14.252 14.9904H1.75195V6.24036H14.252V14.9904ZM6.75195 8.11536V13.1154C6.75195 13.2811 6.6861 13.4401 6.56889 13.5573C6.45168 13.6745 6.29271 13.7404 6.12695 13.7404C5.96119 13.7404 5.80222 13.6745 5.68501 13.5573C5.5678 13.4401 5.50195 13.2811 5.50195 13.1154V9.12629L5.15664 9.29973C5.00829 9.37391 4.83654 9.38612 4.67918 9.33366C4.52183 9.28121 4.39176 9.1684 4.31758 9.02004C4.2434 8.87169 4.23119 8.69994 4.28365 8.54259C4.3361 8.38523 4.44891 8.25516 4.59727 8.18098L5.84726 7.55598C5.94259 7.50828 6.04852 7.48575 6.15501 7.49054C6.26149 7.49532 6.36498 7.52726 6.45564 7.58332C6.5463 7.63937 6.62112 7.71768 6.67298 7.81081C6.72484 7.90393 6.75203 8.00877 6.75195 8.11536ZM11.3738 10.4943L9.87695 12.4904H11.127C11.2927 12.4904 11.4517 12.5562 11.5689 12.6734C11.6861 12.7906 11.752 12.9496 11.752 13.1154C11.752 13.2811 11.6861 13.4401 11.5689 13.5573C11.4517 13.6745 11.2927 13.7404 11.127 13.7404H8.62695C8.51088 13.7404 8.3971 13.708 8.29837 13.647C8.19964 13.586 8.11984 13.4987 8.06794 13.3949C8.01603 13.291 7.99405 13.1748 8.00448 13.0592C8.0149 12.9436 8.05731 12.8332 8.12695 12.7404L10.3754 9.7427C10.4265 9.67461 10.4632 9.5968 10.4832 9.51402C10.5032 9.43125 10.5061 9.34526 10.4916 9.26134C10.4772 9.17742 10.4457 9.09734 10.3992 9.026C10.3527 8.95467 10.2921 8.89359 10.2212 8.84652C10.1502 8.79944 10.0704 8.76736 9.98659 8.75225C9.90279 8.73714 9.81678 8.73931 9.73385 8.75863C9.65092 8.77795 9.57281 8.81402 9.50432 8.86461C9.43582 8.91521 9.37839 8.97927 9.33555 9.05286C9.29572 9.1262 9.2416 9.19083 9.1764 9.24292C9.11119 9.29501 9.03621 9.33352 8.95588 9.35616C8.87555 9.37881 8.79149 9.38513 8.70868 9.37477C8.62586 9.3644 8.54596 9.33756 8.47369 9.29581C8.40142 9.25407 8.33824 9.19827 8.28788 9.13171C8.23753 9.06515 8.20101 8.98918 8.18049 8.90829C8.15997 8.82739 8.15585 8.7432 8.1684 8.66068C8.18094 8.57817 8.20988 8.499 8.25351 8.42786C8.45997 8.07058 8.77852 7.79139 9.15978 7.63356C9.54103 7.47573 9.96371 7.44807 10.3623 7.55488C10.7609 7.66169 11.1131 7.897 11.3643 8.22432C11.6156 8.55165 11.7518 8.95272 11.752 9.36536C11.7533 9.77297 11.6204 10.1697 11.3738 10.4943Z" fill="white"/>
</svg>
