<svg width="56" height="56" viewBox="0 0 56 56" fill="none" xmlns="http://www.w3.org/2000/svg">
<rect x="4" y="4" width="48" height="48" rx="24" fill="#D8F6FF"/>
<rect x="4" y="4" width="48" height="48" rx="24" stroke="#ECF9FC" stroke-width="8"/>
<path d="M27.9995 18.2505C26.0711 18.2505 24.1861 18.8223 22.5827 19.8937C20.9793 20.965 19.7296 22.4877 18.9917 24.2693C18.2537 26.0509 18.0607 28.0113 18.4369 29.9026C18.8131 31.7939 19.7417 33.5312 21.1052 34.8948C22.4688 36.2583 24.2061 37.1869 26.0974 37.5631C27.9887 37.9394 29.9491 37.7463 31.7307 37.0083C33.5123 36.2704 35.035 35.0207 36.1063 33.4173C37.1777 31.8139 37.7495 29.9289 37.7495 28.0005C37.7468 25.4155 36.7187 22.9371 34.8908 21.1092C33.0629 19.2813 30.5845 18.2532 27.9995 18.2505ZM27.9995 36.2505C26.3678 36.2505 24.7728 35.7666 23.4161 34.8601C22.0594 33.9536 21.0019 32.6651 20.3775 31.1576C19.7531 29.6501 19.5897 27.9913 19.908 26.391C20.2264 24.7907 21.0121 23.3206 22.1659 22.1669C23.3197 21.0131 24.7897 20.2273 26.39 19.909C27.9904 19.5907 29.6492 19.7541 31.1567 20.3785C32.6641 21.0029 33.9526 22.0603 34.8591 23.417C35.7657 24.7737 36.2495 26.3688 36.2495 28.0005C36.247 30.1878 35.377 32.2847 33.8304 33.8314C32.2838 35.378 30.1868 36.248 27.9995 36.2505ZM29.4995 32.5005C29.4995 32.6994 29.4205 32.8902 29.2798 33.0308C29.1392 33.1715 28.9484 33.2505 28.7495 33.2505C28.3517 33.2505 27.9702 33.0925 27.6889 32.8111C27.4076 32.5298 27.2495 32.1483 27.2495 31.7505V28.0005C27.0506 28.0005 26.8598 27.9215 26.7192 27.7808C26.5785 27.6402 26.4995 27.4494 26.4995 27.2505C26.4995 27.0516 26.5785 26.8608 26.7192 26.7202C26.8598 26.5795 27.0506 26.5005 27.2495 26.5005C27.6473 26.5005 28.0289 26.6585 28.3102 26.9398C28.5915 27.2211 28.7495 27.6027 28.7495 28.0005V31.7505C28.9484 31.7505 29.1392 31.8295 29.2798 31.9702C29.4205 32.1108 29.4995 32.3016 29.4995 32.5005ZM26.4995 23.8755C26.4995 23.653 26.5655 23.4355 26.6891 23.2505C26.8127 23.0655 26.9884 22.9213 27.194 22.8361C27.3996 22.751 27.6258 22.7287 27.844 22.7721C28.0622 22.8155 28.2627 22.9227 28.42 23.08C28.5773 23.2373 28.6845 23.4378 28.7279 23.656C28.7713 23.8742 28.749 24.1004 28.6639 24.306C28.5787 24.5116 28.4345 24.6873 28.2495 24.8109C28.0645 24.9345 27.847 25.0005 27.6245 25.0005C27.3261 25.0005 27.04 24.882 26.829 24.671C26.618 24.46 26.4995 24.1739 26.4995 23.8755Z" fill="#3DAFD1"/>
</svg>
