<svg width="1440" height="217" viewBox="0 0 1440 217" fill="none" xmlns="http://www.w3.org/2000/svg">
<path fill-rule="evenodd" clip-rule="evenodd" d="M0 131.46L928.487 94.4364L1184.74 84.2182L1441 74L1442 217H0L0 131.46Z" fill="#EBF4FF"/>
<ellipse opacity="0.68" cx="70.4925" cy="73.7993" rx="25.4925" ry="25.4038" fill="#48C7F2"/>
<path opacity="0.68" d="M70.4928 98.3886C56.8478 98.3886 45.8174 87.3151 45.8174 73.799C45.8174 60.2015 56.9295 49.2095 70.4928 49.2095C84.1379 49.2095 95.1683 60.2829 95.1683 73.799C95.1683 87.3965 84.0562 98.3886 70.4928 98.3886Z" fill="url(#paint0_linear_2380_42264)"/>
<path d="M75.4999 71.7692C75.188 71.4405 74.7201 71.4405 74.4082 71.7692L71.7568 74.5629V63.3881C71.7568 62.8951 71.4449 62.5664 70.977 62.5664C70.5091 62.5664 70.1972 62.8951 70.1972 63.3881V85.409L65.9082 80.8898C65.5963 80.5611 65.1284 80.5611 64.8165 80.8898C64.5045 81.2185 64.5045 81.7115 64.8165 82.0401L70.1972 87.7097V116.386C70.1972 116.879 70.5091 117.208 70.977 117.208C71.4449 117.208 71.7568 116.879 71.7568 116.386V76.8636L75.4999 72.9195C75.8118 72.5909 75.8118 72.0978 75.4999 71.7692Z" fill="#5ACCF4"/>
<rect x="62.3521" y="111.632" width="17.8421" height="26.7632" rx="3" fill="#707070"/>
<ellipse opacity="0.68" cx="118.355" cy="100.714" rx="14.8706" ry="14.8189" fill="#48C7F2"/>
<path opacity="0.68" d="M118.355 115.058C110.396 115.058 103.961 108.598 103.961 100.714C103.961 92.7821 110.443 86.3701 118.355 86.3701C126.315 86.3701 132.749 92.8296 132.749 100.714C132.749 108.646 126.267 115.058 118.355 115.058Z" fill="url(#paint1_linear_2380_42264)"/>
<path d="M121.277 99.5299C121.095 99.3382 120.822 99.3382 120.64 99.5299L119.093 101.16V94.6409C119.093 94.3533 118.911 94.1616 118.638 94.1616C118.365 94.1616 118.183 94.3533 118.183 94.6409V107.486L115.682 104.85C115.5 104.659 115.227 104.659 115.045 104.85C114.863 105.042 114.863 105.33 115.045 105.521L118.183 108.829V125.556C118.183 125.844 118.365 126.036 118.638 126.036C118.911 126.036 119.093 125.844 119.093 125.556V102.502L121.277 100.201C121.459 100.009 121.459 99.7216 121.277 99.5299Z" fill="#48C7F2"/>
<rect x="113.607" y="122.784" width="10.4079" height="15.6118" rx="3" fill="#707070"/>
<path opacity="0.607474" d="M1206.05 0.728567C1175.24 64.9614 1217.88 108.378 1225.52 115.396C1226.12 115.872 1227.07 115.753 1227.43 115.039C1232.33 105.88 1258.24 50.9253 1208.08 0.371718C1207.37 -0.223031 1206.41 -0.104081 1206.05 0.728567Z" fill="#2ABDF0"/>
<path opacity="0.607474" d="M1226.36 114.445C1222.89 111.233 1212.26 100.528 1204.62 83.8746C1196.38 65.7943 1190.17 36.7705 1207.13 1.20459C1235.07 29.2767 1238.66 58.6573 1236.75 78.5219C1235.07 96.7212 1228.51 110.4 1226.36 114.445Z" fill="url(#paint2_linear_2380_42264)"/>
<path d="M1222.65 85.3015L1229.22 76.1424C1229.58 75.5476 1229.46 74.8339 1228.98 74.4771C1228.39 74.1202 1227.67 74.2392 1227.31 74.715L1222.18 81.9709L1219.07 63.5337L1215.25 41.0522L1218.83 36.0563C1219.19 35.5805 1219.07 34.7479 1218.59 34.391C1218 34.0342 1217.28 34.1531 1216.92 34.6289L1214.77 37.6027L1211.19 16.5486C1211.07 15.9538 1210.47 15.478 1209.76 15.597C1209.16 15.7159 1208.68 16.3107 1208.8 17.0244L1212.86 40.9332L1216.32 61.0357L1207.85 54.9693C1207.25 54.6125 1206.53 54.7314 1206.17 55.2072C1205.81 55.802 1205.93 56.5157 1206.41 56.8725L1216.92 64.2474L1220.38 85.0636L1229.34 137.639C1229.46 138.234 1229.94 138.591 1230.54 138.591C1230.66 138.591 1230.66 138.591 1230.77 138.591C1231.37 138.472 1231.85 137.877 1231.73 137.164L1222.65 85.3015Z" fill="#2ABDF0"/>
<path d="M1264.31 54.6152C1227.53 79.8374 1237.09 116.645 1239.02 122.8C1239.15 123.282 1239.75 123.524 1240.11 123.162C1245.56 119.662 1276.9 97.9395 1265.52 54.9773C1265.4 54.6152 1264.8 54.3739 1264.31 54.6152Z" fill="#2ABDF0"/>
<path d="M1239.75 122.679C1238.9 119.903 1236.48 110.731 1237.57 99.2666C1238.78 86.8365 1244.47 69.2172 1264.8 55.2183C1271.09 79.113 1263.95 96.2496 1256.69 106.387C1250.04 115.679 1242.17 121.11 1239.75 122.679Z" fill="url(#paint3_linear_2380_42264)"/>
<path d="M1261.53 63.9073C1261.17 63.7866 1260.68 63.9073 1260.56 64.39L1255.24 78.6303L1250.76 90.5777L1248.1 84.6643C1247.98 84.3023 1247.49 84.1816 1247.13 84.3023C1246.77 84.423 1246.65 84.9057 1246.77 85.2677L1250.16 92.5086L1245.56 104.818L1233.94 136.074C1233.82 136.436 1233.94 136.919 1234.43 137.04C1234.55 137.04 1234.55 137.04 1234.67 137.04C1235.03 137.04 1235.27 136.798 1235.39 136.557L1246.89 105.542L1253.3 102.646C1253.66 102.525 1253.79 102.042 1253.66 101.68C1253.54 101.318 1253.06 101.198 1252.7 101.318L1247.61 103.611L1251.73 92.6292L1256.69 79.2337L1260.2 77.6649C1260.56 77.5442 1260.68 77.0615 1260.56 76.6994C1260.44 76.3374 1259.96 76.2167 1259.59 76.3374L1257.54 77.3028L1262.13 64.7521C1262.13 64.5107 1261.89 64.1487 1261.53 63.9073Z" fill="#2ABDF0"/>
<rect x="1220.46" y="132.807" width="22.0938" height="24.6931" rx="3" fill="#707070"/>
<defs>
<linearGradient id="paint0_linear_2380_42264" x1="95.1683" y1="73.799" x2="45.8174" y2="73.799" gradientUnits="userSpaceOnUse">
<stop stop-color="#5AD4FF"/>
<stop offset="1" stop-color="#B4EBFF"/>
</linearGradient>
<linearGradient id="paint1_linear_2380_42264" x1="132.749" y1="100.714" x2="103.961" y2="100.714" gradientUnits="userSpaceOnUse">
<stop stop-color="#59D5FF"/>
<stop offset="1" stop-color="#88E1FF"/>
</linearGradient>
<linearGradient id="paint2_linear_2380_42264" x1="1237.17" y1="57.8246" x2="1196.37" y2="57.8246" gradientUnits="userSpaceOnUse">
<stop stop-color="#57D4FF"/>
<stop offset="1" stop-color="#BAEDFF"/>
</linearGradient>
<linearGradient id="paint3_linear_2380_42264" x1="1267.22" y1="88.9484" x2="1237.3" y2="88.9484" gradientUnits="userSpaceOnUse">
<stop stop-color="#5ED5FF"/>
<stop offset="1" stop-color="#A0E7FF"/>
</linearGradient>
</defs>
</svg>
