<svg width="65" height="64" viewBox="0 0 65 64" fill="none" xmlns="http://www.w3.org/2000/svg">
<path d="M52.5022 19.9941H44.5022V13.9941C44.5022 10.8115 43.2379 7.7593 40.9875 5.50886C38.737 3.25842 35.6848 1.99414 32.5022 1.99414C29.3196 1.99414 26.2674 3.25842 24.0169 5.50886C21.7665 7.7593 20.5022 10.8115 20.5022 13.9941V19.9941H12.5022C11.4413 19.9941 10.4239 20.4156 9.67377 21.1657C8.92362 21.9159 8.5022 22.9333 8.5022 23.9941V51.9941C8.5022 53.055 8.92362 54.0724 9.67377 54.8226C10.4239 55.5727 11.4413 55.9941 12.5022 55.9941H52.5022C53.5631 55.9941 54.5805 55.5727 55.3306 54.8226C56.0808 54.0724 56.5022 53.055 56.5022 51.9941V23.9941C56.5022 22.9333 56.0808 21.9159 55.3306 21.1657C54.5805 20.4156 53.5631 19.9941 52.5022 19.9941ZM24.5022 13.9941C24.5022 11.8724 25.3451 9.83758 26.8453 8.33729C28.3456 6.837 30.3805 5.99414 32.5022 5.99414C34.6239 5.99414 36.6588 6.837 38.159 8.33729C39.6593 9.83758 40.5022 11.8724 40.5022 13.9941V19.9941H24.5022V13.9941ZM52.5022 51.9941H12.5022V23.9941H52.5022V51.9941ZM35.5022 37.9941C35.5022 38.5875 35.3263 39.1675 34.9966 39.6609C34.667 40.1542 34.1984 40.5387 33.6502 40.7658C33.1021 40.9928 32.4989 41.0523 31.9169 40.9365C31.335 40.8207 30.8004 40.535 30.3809 40.1155C29.9613 39.6959 29.6756 39.1614 29.5598 38.5794C29.4441 37.9975 29.5035 37.3943 29.7306 36.8461C29.9576 36.2979 30.3421 35.8294 30.8355 35.4997C31.3288 35.1701 31.9089 34.9941 32.5022 34.9941C33.2978 34.9941 34.0609 35.3102 34.6235 35.8728C35.1861 36.4354 35.5022 37.1985 35.5022 37.9941Z" fill="black"/>
</svg>
