<svg width="9" height="15" viewBox="0 0 9 15" fill="none" xmlns="http://www.w3.org/2000/svg">
<path d="M7.94292 13.5486C8.00099 13.6067 8.04705 13.6756 8.07848 13.7515C8.10991 13.8274 8.12608 13.9087 8.12608 13.9908C8.12608 14.0729 8.10991 14.1543 8.07848 14.2301C8.04705 14.306 8.00099 14.3749 7.94292 14.433C7.88485 14.4911 7.81592 14.5371 7.74005 14.5686C7.66418 14.6 7.58286 14.6162 7.50074 14.6162C7.41861 14.6162 7.3373 14.6 7.26143 14.5686C7.18555 14.5371 7.11662 14.4911 7.05855 14.433L0.808548 8.18301C0.750438 8.12497 0.704339 8.05604 0.672886 7.98016C0.641433 7.90429 0.625244 7.82296 0.625244 7.74083C0.625244 7.65869 0.641433 7.57736 0.672886 7.50149C0.704339 7.42561 0.750438 7.35668 0.808548 7.29864L7.05855 1.04864C7.17582 0.931363 7.33488 0.865479 7.50074 0.865479C7.66659 0.865479 7.82565 0.931363 7.94292 1.04864C8.0602 1.16591 8.12608 1.32497 8.12608 1.49083C8.12608 1.65668 8.0602 1.81574 7.94292 1.93301L2.13433 7.74083L7.94292 13.5486Z" fill="black"/>
</svg>
