<svg width="157" height="30" viewBox="0 0 157 30" fill="none" xmlns="http://www.w3.org/2000/svg">
<path d="M152.754 16.4475H145.537V29.6643H142.264V0.293701H145.537V13.5105H152.754V0.293701H156.026V29.6643H152.754V16.4475Z" fill="black"/>
<path d="M132.661 0C137.192 0 139.29 2.93706 139.29 7.38462V10.028H136.185V7.21678C136.185 4.57343 135.136 2.97902 132.745 2.97902C130.395 2.97902 129.304 4.57343 129.304 7.21678V22.7413C129.304 25.3846 130.395 26.979 132.745 26.979C135.136 26.979 136.185 25.3846 136.185 22.7413V18.9231H139.29V22.5734C139.29 27.021 137.192 29.958 132.661 29.958C128.171 29.958 126.073 27.021 126.073 22.5734V7.38462C126.073 2.93706 128.171 0 132.661 0Z" fill="black"/>
<path d="M114.478 13.3007H121.653V16.2378H114.478V26.6853H123.289V29.6643H111.205V0.293701H123.289V3.27272H114.478V13.3007Z" fill="black"/>
<path d="M103.515 29.6643H100.242V3.27272H94.8296V0.293701H108.927V3.27272H103.515V29.6643Z" fill="black"/>
<path d="M86.519 0C90.9666 0 93.0645 2.89511 93.0645 7.34266V8.13986H89.9596V7.17483C89.9596 4.53147 88.9526 2.97902 86.6029 2.97902C84.2533 2.97902 83.2463 4.53147 83.2463 7.13287C83.2463 13.7203 93.1064 14.3497 93.1064 22.6154C93.1064 27.0629 90.9666 29.958 86.4771 29.958C81.9876 29.958 79.8896 27.0629 79.8896 22.6154V20.9371H82.9526V22.7832C82.9526 25.4266 84.0435 26.979 86.3931 26.979C88.7428 26.979 89.8337 25.4266 89.8337 22.7832C89.8337 16.2378 80.0155 15.6084 80.0155 7.34266C80.0155 2.81119 82.1134 0 86.519 0Z" fill="#2ABDF0"/>
<path d="M67.2303 0.293701V22.7413C67.2303 25.3846 68.2792 26.979 70.6708 26.979C73.0205 26.979 74.0694 25.3846 74.0694 22.7413V0.293701H77.1324V22.5734C77.1324 27.021 75.0764 30 70.545 30C66.0555 30 63.9995 27.021 63.9995 22.5734V0.293701H67.2303Z" fill="#2ABDF0"/>
<path d="M56.4353 29.6643H53.1626V3.27272H47.75V0.293701H61.8479V3.27272H56.4353V29.6643Z" fill="#2ABDF0"/>
<path d="M39.2793 0C43.8108 0 45.9087 2.93706 45.9087 7.38462V10.028H42.8038V7.21678C42.8038 4.57343 41.7548 2.97902 39.3632 2.97902C37.0136 2.97902 35.9227 4.57343 35.9227 7.21678V22.7413C35.9227 25.3846 37.0136 26.979 39.3632 26.979C41.7548 26.979 42.8038 25.3846 42.8038 22.7413V18.9231H45.9087V22.5734C45.9087 27.021 43.8108 29.958 39.2793 29.958C34.7898 29.958 32.6919 27.021 32.6919 22.5734V7.38462C32.6919 2.93706 34.7898 0 39.2793 0Z" fill="#2ABDF0"/>
<path d="M16.3838 22.5734V7.38462C16.3838 2.89511 18.6076 0 23.0971 0C27.6285 0 29.8523 2.89511 29.8523 7.38462V22.5734C29.8523 27.021 27.6285 29.958 23.0971 29.958C18.6076 29.958 16.3838 27.021 16.3838 22.5734ZM19.6146 7.21678V22.7413C19.6146 25.4266 20.7474 26.979 23.0971 26.979C25.4887 26.979 26.5796 25.4266 26.5796 22.7413V7.21678C26.5796 4.57343 25.4887 2.97902 23.0971 2.97902C20.7474 2.97902 19.6146 4.57343 19.6146 7.21678Z" fill="#2ABDF0"/>
<path d="M0 0.293701H6.88112C11.4545 0.293701 13.5524 3.06293 13.5524 7.5944V22.4056C13.5524 26.8951 11.4545 29.6643 6.88112 29.6643H0V0.293701ZM3.27273 26.6853H6.83916C9.18881 26.6853 10.3217 25.2168 10.3217 22.5315V7.42657C10.3217 4.74125 9.18881 3.27272 6.7972 3.27272H3.27273V26.6853Z" fill="#2ABDF0"/>
</svg>
