<svg width="200" height="39" viewBox="0 0 200 39" fill="none" xmlns="http://www.w3.org/2000/svg">
<path d="M195.805 21.083H186.554V38.0248H182.359V0.376465H186.554V17.3182H195.805V0.376465H200V38.0248H195.805V21.083Z" fill="black"/>
<path d="M170.049 0C175.858 0 178.547 3.76483 178.547 9.46586V12.8542H174.567V9.25073C174.567 5.86238 173.222 3.81861 170.157 3.81861C167.145 3.81861 165.746 5.86238 165.746 9.25073V29.1506C165.746 32.5389 167.145 34.5827 170.157 34.5827C173.222 34.5827 174.567 32.5389 174.567 29.1506V24.2563H178.547V28.9354C178.547 34.6365 175.858 38.4013 170.049 38.4013C164.294 38.4013 161.605 34.6365 161.605 28.9354V9.46586C161.605 3.76483 164.294 0 170.049 0Z" fill="black"/>
<path d="M146.742 17.0493H155.939V20.8141H146.742V34.2062H158.036V38.0248H142.547V0.376465H158.036V4.19508H146.742V17.0493Z" fill="black"/>
<path d="M132.689 38.0248H128.494V4.19508H121.556V0.376465H139.627V4.19508H132.689V38.0248Z" fill="black"/>
<path d="M110.904 0C116.605 0 119.294 3.71105 119.294 9.41208V10.434H115.314V9.19695C115.314 5.8086 114.023 3.81861 111.011 3.81861C107.999 3.81861 106.708 5.8086 106.708 9.14316C106.708 17.5871 119.348 18.3939 119.348 28.9892C119.348 34.6902 116.605 38.4013 110.85 38.4013C105.095 38.4013 102.406 34.6902 102.406 28.9892V26.8379H106.332V29.2043C106.332 32.5927 107.73 34.5827 110.742 34.5827C113.754 34.5827 115.152 32.5927 115.152 29.2043C115.152 20.8141 102.567 20.0074 102.567 9.41208C102.567 3.60348 105.256 0 110.904 0Z" fill="#2ABDF0"/>
<path d="M86.1779 0.376465V29.1505C86.1779 32.5389 87.5225 34.5827 90.5882 34.5827C93.6 34.5827 94.9446 32.5389 94.9446 29.1505V0.376465H98.8708V28.9354C98.8708 34.6364 96.2354 38.4551 90.4268 38.4551C84.672 38.4551 82.0366 34.6364 82.0366 28.9354V0.376465H86.1779Z" fill="#2ABDF0"/>
<path d="M72.3407 38.0248H68.1456V4.19508H61.2075V0.376465H79.2787V4.19508H72.3407V38.0248Z" fill="#2ABDF0"/>
<path d="M50.3497 0C56.1583 0 58.8475 3.76483 58.8475 9.46586V12.8542H54.8675V9.25073C54.8675 5.86238 53.523 3.81861 50.4573 3.81861C47.4454 3.81861 46.0471 5.86238 46.0471 9.25073V29.1506C46.0471 32.5389 47.4454 34.5827 50.4573 34.5827C53.523 34.5827 54.8675 32.5389 54.8675 29.1506V24.2563H58.8475V28.9354C58.8475 34.6365 56.1583 38.4013 50.3497 38.4013C44.5949 38.4013 41.9058 34.6365 41.9058 28.9354V9.46586C41.9058 3.76483 44.5949 0 50.3497 0Z" fill="#2ABDF0"/>
<path d="M21.0015 28.9354V9.46586C21.0015 3.71105 23.852 0 29.6068 0C35.4154 0 38.2659 3.71105 38.2659 9.46586V28.9354C38.2659 34.6365 35.4154 38.4013 29.6068 38.4013C23.852 38.4013 21.0015 34.6365 21.0015 28.9354ZM25.1428 9.25073V29.1506C25.1428 32.5927 26.5949 34.5827 29.6068 34.5827C32.6724 34.5827 34.0708 32.5927 34.0708 29.1506V9.25073C34.0708 5.86238 32.6724 3.81861 29.6068 3.81861C26.5949 3.81861 25.1428 5.86238 25.1428 9.25073Z" fill="#2ABDF0"/>
<path d="M0 0.376465H8.82047C14.6828 0.376465 17.372 3.92617 17.372 9.73476V28.7203C17.372 34.4751 14.6828 38.0248 8.82047 38.0248H0V0.376465ZM4.1951 34.2062H8.76668C11.7785 34.2062 13.2307 32.3238 13.2307 28.8816V9.51963C13.2307 6.0775 11.7785 4.19508 8.7129 4.19508H4.1951V34.2062Z" fill="#2ABDF0"/>
</svg>
