<svg width="16" height="16" viewBox="0 0 16 16" fill="none" xmlns="http://www.w3.org/2000/svg">
<path d="M15.5002 9.6159V13.9909C15.5002 14.3224 15.3685 14.6404 15.1341 14.8748C14.8997 15.1092 14.5818 15.2409 14.2502 15.2409H1.75024C1.41872 15.2409 1.10078 15.1092 0.866361 14.8748C0.63194 14.6404 0.500244 14.3224 0.500244 13.9909V9.6159C0.500244 9.45014 0.566092 9.29117 0.683303 9.17396C0.800513 9.05675 0.959484 8.9909 1.12524 8.9909C1.291 8.9909 1.44998 9.05675 1.56719 9.17396C1.6844 9.29117 1.75024 9.45014 1.75024 9.6159V13.9909H14.2502V9.6159C14.2502 9.45014 14.3161 9.29117 14.4333 9.17396C14.5505 9.05675 14.7095 8.9909 14.8752 8.9909C15.041 8.9909 15.2 9.05675 15.3172 9.17396C15.4344 9.29117 15.5002 9.45014 15.5002 9.6159ZM7.55806 10.0581C7.6161 10.1162 7.68503 10.1623 7.76091 10.1938C7.83678 10.2252 7.91811 10.2414 8.00024 10.2414C8.08238 10.2414 8.16371 10.2252 8.23958 10.1938C8.31546 10.1623 8.38439 10.1162 8.44243 10.0581L11.5674 6.93309C11.6255 6.87502 11.6716 6.80609 11.703 6.73022C11.7344 6.65434 11.7506 6.57303 11.7506 6.49091C11.7506 6.40878 11.7344 6.32747 11.703 6.2516C11.6716 6.17572 11.6255 6.10679 11.5674 6.04872C11.5094 5.99065 11.4404 5.94459 11.3646 5.91316C11.2887 5.88173 11.2074 5.86556 11.1252 5.86556C11.0431 5.86556 10.9618 5.88173 10.8859 5.91316C10.8101 5.94459 10.7411 5.99065 10.6831 6.04872L8.62524 8.10731V0.865906C8.62524 0.700145 8.5594 0.541174 8.44219 0.423964C8.32498 0.306754 8.166 0.240906 8.00024 0.240906C7.83448 0.240906 7.67551 0.306754 7.5583 0.423964C7.44109 0.541174 7.37524 0.700145 7.37524 0.865906V8.10731L5.31743 6.04872C5.20016 5.93144 5.0411 5.86556 4.87524 5.86556C4.70939 5.86556 4.55033 5.93144 4.43306 6.04872C4.31578 6.16599 4.2499 6.32505 4.2499 6.49091C4.2499 6.65676 4.31578 6.81582 4.43306 6.93309L7.55806 10.0581Z" fill="black"/>
</svg>
