<svg width="56" height="56" viewBox="0 0 56 56" fill="none" xmlns="http://www.w3.org/2000/svg">
<rect x="4" y="4" width="48" height="48" rx="24" fill="#D8F6FF"/>
<rect x="4" y="4" width="48" height="48" rx="24" stroke="#ECF9FC" stroke-width="8"/>
<path d="M37.7495 29.4994C37.7478 31.0902 37.1151 32.6153 35.9902 33.7402C34.8654 34.865 33.3403 35.4977 31.7495 35.4994H23.4995C23.3006 35.4994 23.1098 35.4204 22.9692 35.2798C22.8285 35.1391 22.7495 34.9484 22.7495 34.7494C22.7495 34.5505 22.8285 34.3598 22.9692 34.2191C23.1098 34.0785 23.3006 33.9994 23.4995 33.9994H31.7495C32.943 33.9994 34.0876 33.5253 34.9315 32.6814C35.7754 31.8375 36.2495 30.6929 36.2495 29.4994C36.2495 28.306 35.7754 27.1614 34.9315 26.3175C34.0876 25.4735 32.943 24.9994 31.7495 24.9994H20.8098L24.0301 28.2188C24.1708 28.3595 24.2499 28.5504 24.2499 28.7494C24.2499 28.9485 24.1708 29.1393 24.0301 29.2801C23.8894 29.4208 23.6985 29.4999 23.4995 29.4999C23.3005 29.4999 23.1096 29.4208 22.9689 29.2801L18.4689 24.7801C18.3991 24.7104 18.3438 24.6277 18.3061 24.5366C18.2683 24.4456 18.2489 24.348 18.2489 24.2494C18.2489 24.1509 18.2683 24.0533 18.3061 23.9622C18.3438 23.8712 18.3991 23.7885 18.4689 23.7188L22.9689 19.2188C23.1096 19.0781 23.3005 18.999 23.4995 18.999C23.6985 18.999 23.8894 19.0781 24.0301 19.2188C24.1708 19.3595 24.2499 19.5504 24.2499 19.7494C24.2499 19.9485 24.1708 20.1393 24.0301 20.2801L20.8098 23.4994H31.7495C33.3403 23.5012 34.8654 24.1339 35.9902 25.2587C37.1151 26.3836 37.7478 27.9087 37.7495 29.4994Z" fill="black"/>
</svg>
