<svg width="720" height="217" viewBox="0 0 720 217" fill="none" xmlns="http://www.w3.org/2000/svg">
<path fill-rule="evenodd" clip-rule="evenodd" d="M0 131.46L464.887 94.4364L593.193 84.2182L721.499 74L722 217H0L0 131.46Z" fill="#E3F0F5"/>
<ellipse opacity="0.68" cx="70.4925" cy="73.7991" rx="25.4925" ry="25.4038" fill="#48C7F2"/>
<path opacity="0.68" d="M70.4928 98.3887C56.8478 98.3887 45.8174 87.3152 45.8174 73.7991C45.8174 60.2016 56.9295 49.2096 70.4928 49.2096C84.1379 49.2096 95.1683 60.283 95.1683 73.7991C95.1683 87.3967 84.0562 98.3887 70.4928 98.3887Z" fill="url(#paint0_linear_775_14272)"/>
<path d="M75.4999 71.7689C75.188 71.4403 74.7201 71.4403 74.4082 71.7689L71.7568 74.5626V63.3878C71.7568 62.8948 71.4449 62.5662 70.977 62.5662C70.5091 62.5662 70.1972 62.8948 70.1972 63.3878V85.4088L65.9082 80.8895C65.5963 80.5609 65.1284 80.5609 64.8165 80.8895C64.5045 81.2182 64.5045 81.7112 64.8165 82.0399L70.1972 87.7095V116.386C70.1972 116.879 70.5091 117.208 70.977 117.208C71.4449 117.208 71.7568 116.879 71.7568 116.386V76.8633L75.4999 72.9193C75.8118 72.5906 75.8118 72.0976 75.4999 71.7689Z" fill="#5ACCF4"/>
<rect x="62.3521" y="111.632" width="17.8421" height="26.7632" rx="3" fill="#707070"/>
<ellipse opacity="0.68" cx="118.355" cy="100.714" rx="14.8706" ry="14.8189" fill="#48C7F2"/>
<path opacity="0.68" d="M118.355 115.058C110.396 115.058 103.961 108.598 103.961 100.714C103.961 92.7821 110.443 86.3701 118.355 86.3701C126.315 86.3701 132.749 92.8296 132.749 100.714C132.749 108.646 126.267 115.058 118.355 115.058Z" fill="url(#paint1_linear_775_14272)"/>
<path d="M121.277 99.53C121.095 99.3382 120.822 99.3382 120.64 99.53L119.093 101.16V94.641C119.093 94.3534 118.911 94.1617 118.638 94.1617C118.365 94.1617 118.183 94.3534 118.183 94.641V107.487L115.682 104.85C115.5 104.659 115.227 104.659 115.045 104.85C114.863 105.042 114.863 105.33 115.045 105.521L118.183 108.829V125.557C118.183 125.844 118.365 126.036 118.638 126.036C118.911 126.036 119.093 125.844 119.093 125.557V102.502L121.277 100.201C121.459 100.009 121.459 99.7217 121.277 99.53Z" fill="#48C7F2"/>
<rect x="113.607" y="122.784" width="10.4079" height="15.6118" rx="3" fill="#707070"/>
<path opacity="0.607474" d="M506.188 0.728628C475.376 64.9615 518.011 108.378 525.654 115.396C526.252 115.872 527.207 115.753 527.565 115.039C532.462 105.88 558.377 50.9254 508.218 0.371779C507.502 -0.22297 506.546 -0.10402 506.188 0.728628Z" fill="#2ABDF0"/>
<path opacity="0.607474" d="M526.49 114.445C523.027 111.233 512.398 100.527 504.754 83.8744C496.514 65.7941 490.304 36.7704 507.262 1.20441C535.208 29.2765 538.791 58.6571 536.88 78.5217C535.208 96.721 528.64 110.4 526.49 114.445Z" fill="url(#paint2_linear_775_14272)"/>
<path d="M522.788 85.3017L529.356 76.1426C529.715 75.5479 529.595 74.8342 529.118 74.4773C528.52 74.1205 527.804 74.2394 527.446 74.7152L522.31 81.9711L519.205 63.5339L515.384 41.0524L518.966 36.0566C519.325 35.5808 519.205 34.7481 518.727 34.3913C518.13 34.0344 517.414 34.1534 517.056 34.6292L514.906 37.6029L511.323 16.5488C511.204 15.9541 510.607 15.4783 509.89 15.5972C509.293 15.7162 508.815 16.3109 508.935 17.0246L512.995 40.9335L516.458 61.036L507.979 54.9696C507.382 54.6127 506.665 54.7317 506.307 55.2075C505.949 55.8022 506.068 56.5159 506.546 56.8728L517.056 64.2476L520.519 85.0638L529.476 137.64C529.595 138.234 530.073 138.591 530.67 138.591C530.79 138.591 530.79 138.591 530.909 138.591C531.506 138.472 531.984 137.878 531.864 137.164L522.788 85.3017Z" fill="#2ABDF0"/>
<path d="M564.447 54.6153C527.663 79.8375 537.222 116.645 539.158 122.8C539.279 123.282 539.884 123.524 540.247 123.162C545.692 119.662 577.031 97.9396 565.657 54.9773C565.536 54.6153 564.931 54.3739 564.447 54.6153Z" fill="#2ABDF0"/>
<path d="M539.884 122.679C539.037 119.903 536.617 110.732 537.706 99.2669C538.916 86.8368 544.603 69.2174 564.931 55.2185C571.223 79.1132 564.084 96.2499 556.824 106.387C550.169 115.679 542.304 121.11 539.884 122.679Z" fill="url(#paint3_linear_775_14272)"/>
<path d="M561.663 63.9075C561.3 63.7868 560.816 63.9075 560.695 64.3902L555.371 78.6305L550.894 90.5779L548.232 84.6645C548.111 84.3025 547.627 84.1818 547.264 84.3025C546.901 84.4232 546.78 84.9059 546.901 85.2679L550.289 92.5087L545.691 104.818L534.075 136.074C533.954 136.436 534.075 136.919 534.559 137.04C534.68 137.04 534.68 137.04 534.801 137.04C535.164 137.04 535.406 136.798 535.527 136.557L547.022 105.542L553.435 102.646C553.798 102.525 553.919 102.042 553.798 101.68C553.677 101.318 553.193 101.198 552.83 101.318L547.748 103.611L551.862 92.6294L556.823 79.2339L560.332 77.6651C560.695 77.5444 560.816 77.0616 560.695 76.6996C560.574 76.3376 560.09 76.2169 559.727 76.3376L557.67 77.303L562.268 64.7522C562.268 64.5109 562.026 64.1488 561.663 63.9075Z" fill="#2ABDF0"/>
<rect x="520.595" y="132.807" width="22.0938" height="24.6931" rx="3" fill="#707070"/>
<defs>
<linearGradient id="paint0_linear_775_14272" x1="95.1683" y1="73.7991" x2="45.8174" y2="73.7991" gradientUnits="userSpaceOnUse">
<stop stop-color="#5AD4FF"/>
<stop offset="1" stop-color="#B4EBFF"/>
</linearGradient>
<linearGradient id="paint1_linear_775_14272" x1="132.749" y1="100.714" x2="103.961" y2="100.714" gradientUnits="userSpaceOnUse">
<stop stop-color="#59D5FF"/>
<stop offset="1" stop-color="#88E1FF"/>
</linearGradient>
<linearGradient id="paint2_linear_775_14272" x1="537.308" y1="57.8244" x2="496.509" y2="57.8244" gradientUnits="userSpaceOnUse">
<stop stop-color="#57D4FF"/>
<stop offset="1" stop-color="#BAEDFF"/>
</linearGradient>
<linearGradient id="paint3_linear_775_14272" x1="567.352" y1="88.9487" x2="537.429" y2="88.9487" gradientUnits="userSpaceOnUse">
<stop stop-color="#5ED5FF"/>
<stop offset="1" stop-color="#A0E7FF"/>
</linearGradient>
</defs>
</svg>
