<svg width="9" height="15" viewBox="0 0 9 15" fill="none" xmlns="http://www.w3.org/2000/svg">
<path d="M8.19107 8.18271L1.94107 14.4327C1.883 14.4908 1.81406 14.5368 1.73819 14.5683C1.66232 14.5997 1.581 14.6159 1.49888 14.6159C1.41676 14.6159 1.33544 14.5997 1.25957 14.5683C1.1837 14.5368 1.11476 14.4908 1.05669 14.4327C0.998626 14.3746 0.952563 14.3057 0.921137 14.2298C0.88971 14.154 0.873535 14.0726 0.873535 13.9905C0.873535 13.9084 0.88971 13.8271 0.921137 13.7512C0.952563 13.6753 0.998626 13.6064 1.05669 13.5483L6.86529 7.74052L1.05669 1.93271C0.939419 1.81543 0.873535 1.65637 0.873535 1.49052C0.873535 1.32467 0.939419 1.16561 1.05669 1.04833C1.17397 0.931058 1.33303 0.865173 1.49888 0.865173C1.66474 0.865173 1.8238 0.931058 1.94107 1.04833L8.19107 7.29833C8.24918 7.35638 8.29528 7.42531 8.32673 7.50118C8.35819 7.57706 8.37437 7.65839 8.37437 7.74052C8.37437 7.82266 8.35819 7.90398 8.32673 7.97986C8.29528 8.05573 8.24918 8.12466 8.19107 8.18271Z" fill="black"/>
</svg>
