<svg width="100" height="20" viewBox="0 0 100 20" fill="none" xmlns="http://www.w3.org/2000/svg">
<path d="M97.9026 10.9278H93.2772V19.3986H91.1797V0.574463H93.2772V9.04534H97.9026V0.574463H100V19.3986H97.9026V10.9278Z" fill="black"/>
<path d="M85.0247 0.38623C87.929 0.38623 89.2736 2.26865 89.2736 5.11916V6.81334H87.2836V5.0116C87.2836 3.31742 86.6113 2.29554 85.0785 2.29554C83.5726 2.29554 82.8734 3.31742 82.8734 5.0116V14.9615C82.8734 16.6557 83.5726 17.6776 85.0785 17.6776C86.6113 17.6776 87.2836 16.6557 87.2836 14.9615V12.5144H89.2736V14.8539C89.2736 17.7045 87.929 19.5869 85.0247 19.5869C82.1473 19.5869 80.8027 17.7045 80.8027 14.8539V5.11916C80.8027 2.26865 82.1473 0.38623 85.0247 0.38623Z" fill="black"/>
<path d="M73.371 8.91088H77.9695V10.7933H73.371V17.4893H79.0182V19.3986H71.2734V0.574463H79.0182V2.48377H73.371V8.91088Z" fill="black"/>
<path d="M66.3449 19.3986H64.2473V2.48377H60.7783V0.574463H69.8139V2.48377H66.3449V19.3986Z" fill="black"/>
<path d="M55.4515 0.38623C58.302 0.38623 59.6466 2.24176 59.6466 5.09227V5.60321H57.6566V4.9847C57.6566 3.29053 57.0112 2.29554 55.5053 2.29554C53.9994 2.29554 53.354 3.29053 53.354 4.95781C53.354 9.1798 59.6735 9.58318 59.6735 14.8808C59.6735 17.7314 58.302 19.5869 55.4246 19.5869C52.5472 19.5869 51.2026 17.7314 51.2026 14.8808V13.8052H53.1657V14.9884C53.1657 16.6826 53.8649 17.6776 55.3708 17.6776C56.8768 17.6776 57.576 16.6826 57.576 14.9884C57.576 10.7933 51.2833 10.3899 51.2833 5.09227C51.2833 2.18797 52.6279 0.38623 55.4515 0.38623Z" fill="#2ABDF0"/>
<path d="M43.0892 0.574463V14.9615C43.0892 16.6557 43.7615 17.6776 45.2943 17.6776C46.8003 17.6776 47.4726 16.6557 47.4726 14.9615V0.574463H49.4356V14.8539C49.4356 17.7045 48.118 19.6138 45.2137 19.6138C42.3362 19.6138 41.0186 17.7045 41.0186 14.8539V0.574463H43.0892Z" fill="#2ABDF0"/>
<path d="M36.1706 19.3986H34.073V2.48377H30.604V0.574463H39.6396V2.48377H36.1706V19.3986Z" fill="#2ABDF0"/>
<path d="M25.1746 0.38623C28.0789 0.38623 29.4235 2.26865 29.4235 5.11916V6.81334H27.4335V5.0116C27.4335 3.31742 26.7612 2.29554 25.2284 2.29554C23.7225 2.29554 23.0233 3.31742 23.0233 5.0116V14.9615C23.0233 16.6557 23.7225 17.6776 25.2284 17.6776C26.7612 17.6776 27.4335 16.6557 27.4335 14.9615V12.5144H29.4235V14.8539C29.4235 17.7045 28.0789 19.5869 25.1746 19.5869C22.2972 19.5869 20.9526 17.7045 20.9526 14.8539V5.11916C20.9526 2.26865 22.2972 0.38623 25.1746 0.38623Z" fill="#2ABDF0"/>
<path d="M10.501 14.8539V5.11916C10.501 2.24176 11.9262 0.38623 14.8036 0.38623C17.7079 0.38623 19.1332 2.24176 19.1332 5.11916V14.8539C19.1332 17.7045 17.7079 19.5869 14.8036 19.5869C11.9262 19.5869 10.501 17.7045 10.501 14.8539ZM12.5716 5.0116V14.9615C12.5716 16.6826 13.2977 17.6776 14.8036 17.6776C16.3365 17.6776 17.0357 16.6826 17.0357 14.9615V5.0116C17.0357 3.31742 16.3365 2.29554 14.8036 2.29554C13.2977 2.29554 12.5716 3.31742 12.5716 5.0116Z" fill="#2ABDF0"/>
<path d="M0 0.574463H4.41023C7.34142 0.574463 8.68601 2.34931 8.68601 5.25361V14.7464C8.68601 17.6238 7.34142 19.3986 4.41023 19.3986H0V0.574463ZM2.09755 17.4893H4.38334C5.88927 17.4893 6.61535 16.5481 6.61535 14.827V5.14605C6.61535 3.42498 5.88927 2.48377 4.35645 2.48377H2.09755V17.4893Z" fill="#2ABDF0"/>
</svg>
